<?xml version="1.0" standalone="no"?>
<!DOCTYPE svg PUBLIC "-//W3C//DTD SVG 20010904//EN"
 "http://www.w3.org/TR/2001/REC-SVG-20010904/DTD/svg10.dtd">
<svg version="1.0" xmlns="http://www.w3.org/2000/svg"
 width="350.000000pt" height="365.000000pt" viewBox="0 0 350.000000 365.000000"
 preserveAspectRatio="xMidYMid meet">

<g transform="translate(0.000000,365.000000) scale(0.100000,-0.100000)"
fill="#000000" stroke="none">
<path d="M0 3571 l0 -80 85 2 c123 3 124 1 133 -188 l7 -148 -75 7 c-41 3 -92
9 -112 12 l-38 7 0 -42 c0 -22 1 -41 3 -41 1 0 144 -20 317 -45 173 -25 318
-45 322 -45 3 0 6 -53 6 -117 0 -73 -3 -110 -8 -98 -19 45 -16 -78 5 -180 17
-87 24 -164 15 -170 -7 -5 -6 -31 3 -55 10 -28 17 -105 37 -429 15 -239 17
-328 9 -338 -6 -7 -7 -13 -2 -13 5 0 9 -10 8 -22 -1 -16 -9 -24 -25 -26 -13
-2 -34 -10 -46 -18 -12 -8 -34 -17 -48 -20 -21 -4 -26 -1 -26 17 0 28 0 28
-250 -64 l-205 -76 0 -33 c0 -44 -29 -46 -32 -3 -2 17 -5 59 -8 95 -8 97 -43
637 -56 865 -6 110 -13 202 -15 204 -2 2 -4 -566 -4 -1262 l0 -1267 1750 0
1750 0 0 1825 0 1825 -1285 0 c-1108 0 -1285 -2 -1285 -14 0 -17 -45 -50 -79
-59 -35 -9 -71 10 -84 43 l-11 30 -378 0 -378 0 0 -79z m2741 -101 c-13 -11
-32 -20 -43 -20 -22 0 -98 -39 -98 -51 0 -4 8 -6 18 -5 20 1 18 -32 -4 -76 -8
-15 -14 -43 -14 -63 0 -41 -20 -93 -44 -118 -30 -30 -37 -19 -16 24 24 47 24
75 0 56 -9 -7 -32 -35 -52 -63 -63 -85 -95 -182 -68 -199 17 -10 11 -25 -10
-25 -28 0 -70 -21 -70 -35 0 -7 10 -19 22 -27 21 -14 21 -15 4 -67 -9 -28 -14
-56 -10 -62 3 -5 0 -16 -6 -24 -10 -12 -9 -15 9 -15 40 0 23 -28 -19 -32 -45
-4 -45 -5 -26 49 14 39 14 84 0 156 -5 27 -3 42 8 55 21 24 28 47 39 131 17
136 49 186 199 310 l25 21 -30 -11 c-16 -5 -45 -20 -64 -31 -24 -15 -32 -17
-29 -7 6 20 133 95 208 123 81 31 103 32 71 6z m329 -60 c0 -5 -7 -10 -15 -10
-8 0 -15 5 -15 10 0 6 7 10 15 10 8 0 15 -4 15 -10z m-1423 -426 c292 -4 536
-10 542 -13 13 -8 -5 -134 -20 -139 -5 -2 -6 -14 -3 -27 5 -20 1 -25 -21 -31
l-26 -6 7 -117 c3 -64 7 -120 8 -126 0 -6 -26 -10 -64 -10 -56 0 -65 3 -68 19
-2 11 4 25 13 33 13 9 15 16 8 25 -21 25 -12 67 17 85 19 11 26 22 22 35 -3
11 3 24 13 32 15 10 15 15 4 21 -19 12 -133 18 -185 10 l-44 -6 0 -50 c0 -35
4 -51 15 -55 20 -8 19 -24 -1 -24 -13 0 -15 -11 -12 -67 l3 -68 -31 -3 c-29
-3 -32 0 -38 32 -6 30 -11 36 -31 36 -40 0 -29 16 18 26 26 6 42 15 42 24 0
12 -16 14 -82 12 -69 -2 -83 0 -83 13 0 10 9 15 26 15 15 0 44 5 65 12 30 9
39 16 39 34 0 13 -7 24 -17 27 -10 3 -3 5 15 6 34 1 48 31 15 31 -39 1 -170 2
-195 1 -27 -1 -28 -3 -28 -56 0 -48 2 -55 20 -55 25 0 27 -17 3 -22 -15 -3
-18 -15 -18 -73 l0 -70 -65 0 c-58 0 -65 2 -65 20 0 14 8 21 25 23 34 5 46 17
45 44 -2 42 -13 48 -86 48 -52 0 -70 3 -67 13 3 7 29 13 69 15 58 3 65 5 76
29 18 37 3 45 -69 37 -31 -4 -61 -3 -68 1 -23 14 13 25 82 25 37 0 70 5 73 10
4 6 -41 10 -128 10 l-135 0 5 -47 c6 -66 9 -73 33 -73 12 0 18 -4 15 -10 -3
-5 -16 -10 -27 -10 -20 0 -20 -4 -14 -75 l7 -75 -100 0 c-56 0 -103 4 -106 10
-4 6 12 10 40 10 30 0 47 5 51 14 3 8 15 17 27 20 21 6 21 7 5 20 -22 16 -23
26 -3 26 8 0 15 9 15 20 0 17 -8 19 -72 22 -79 3 -96 21 -26 26 23 2 48 8 55
14 22 18 15 36 -14 40 -41 4 -34 23 10 26 20 2 37 7 37 11 0 5 10 12 23 17 14
5 -14 9 -85 11 l-108 4 0 46 c0 42 2 45 23 39 12 -3 30 -6 41 -6 12 0 16 -5
12 -15 -6 -16 -19 -16 369 -16 621 0 595 0 595 19 0 10 5 23 12 30 9 9 4 11
-21 7 -18 -2 -36 -6 -39 -9 -3 -3 -11 -1 -18 5 -9 7 -19 6 -34 -3 -18 -11 -23
-10 -35 5 -8 12 -15 14 -20 8 -3 -6 -19 -11 -36 -11 -23 0 -29 4 -30 23 -1 21
-1 21 -8 -3 -6 -23 -11 -24 -94 -27 -86 -3 -87 -3 -87 21 0 19 -7 26 -27 30
-30 6 -602 1 -608 -6 -4 -4 -13 -53 -14 -79 -1 -9 -9 -19 -19 -21 -28 -8 -53
-69 -45 -109 6 -32 44 -79 63 -79 25 0 21 -118 -4 -132 -14 -8 -15 -21 -10
-90 6 -63 4 -82 -7 -89 -20 -12 -169 -11 -169 1 0 6 26 10 58 10 75 0 104 8
100 29 -2 12 -18 17 -58 21 -51 6 -53 14 -5 22 11 2 21 11 23 21 3 14 -4 17
-43 17 -28 0 -44 4 -40 10 3 6 15 10 26 10 10 0 19 7 19 15 0 9 9 15 25 15 19
0 25 5 25 21 0 19 -5 20 -75 17 -44 -2 -76 1 -77 7 -2 6 23 11 57 12 106 5
145 12 138 29 -4 11 -26 14 -94 14 -130 0 -115 23 21 33 44 3 44 4 -8 5 -38 1
-52 6 -50 15 3 6 14 13 26 15 28 4 29 32 2 39 -22 6 -27 23 -7 24 10 0 10 2 0
6 -20 8 -15 23 7 23 16 0 20 7 20 30 0 19 5 30 14 30 7 0 16 9 19 20 5 18 0
20 -51 20 -52 1 -55 2 -38 15 18 14 16 15 -31 15 l-51 0 -5 58 c-2 31 -2 61 1
66 3 5 79 6 176 2 94 -3 410 -9 703 -12z m1206 -1 c-7 -2 -19 -2 -25 0 -7 3
-2 5 12 5 14 0 19 -2 13 -5z m-351 -238 c6 -24 4 -33 -12 -45 -16 -12 -19 -22
-14 -49 5 -25 4 -32 -4 -27 -8 4 -12 36 -12 82 0 65 2 75 17 72 9 -2 20 -16
25 -33z m-122 -160 c0 -13 11 -32 24 -43 18 -14 23 -25 19 -41 -3 -13 1 -29
12 -41 12 -14 15 -27 10 -50 -10 -44 10 -86 52 -105 32 -15 41 -15 129 0 l94
17 30 -32 c29 -31 29 -32 13 -58 -9 -15 -34 -43 -55 -63 -39 -38 -42 -55 -11
-90 11 -14 11 -22 -4 -55 -10 -21 -27 -51 -37 -66 -10 -15 -24 -47 -31 -70
-12 -42 -13 -43 -61 -46 -27 -2 -52 -9 -56 -15 -6 -9 -8 -9 -8 1 0 7 -14 12
-34 12 -28 0 -35 -4 -40 -25 -9 -37 -50 -34 -66 5 -7 16 -10 36 -7 43 3 8 -1
142 -9 298 -19 395 -18 447 4 452 25 5 32 -1 32 -28z m-1043 -154 c4 -15 18
-19 91 -24 48 -3 107 -1 132 3 25 5 97 9 161 10 l117 0 6 -35 c7 -36 19 -42
46 -25 12 8 11 10 -7 10 -18 0 -23 6 -23 25 0 22 4 25 36 25 21 0 33 -4 29
-10 -3 -5 1 -10 9 -10 9 0 16 6 16 14 0 10 24 15 93 20 50 4 102 10 115 13 17
4 22 1 22 -15 0 -12 4 -24 10 -27 5 -3 9 -32 9 -65 l-1 -59 -53 -6 c-65 -9
-89 -4 -93 17 -2 12 8 18 47 23 76 10 53 22 -36 19 -65 -3 -71 -2 -38 6 22 5
56 9 75 9 34 1 60 15 60 33 0 4 -19 8 -43 8 -31 0 -45 -5 -55 -20 -9 -16 -23
-20 -63 -20 -34 0 -48 -4 -43 -11 12 -20 -20 -29 -111 -29 -49 0 -130 -5 -180
-10 -145 -16 -608 -50 -613 -45 -2 2 -2 11 1 20 5 11 21 15 64 15 32 0 147 5
256 10 177 9 200 12 220 31 33 30 7 41 -78 34 -90 -8 -322 -19 -400 -20 -53 0
-60 2 -60 20 0 18 7 20 70 21 39 1 94 5 123 9 46 6 52 10 52 31 0 29 29 33 37
5z m278 -177 c0 -16 -10 -20 -68 -26 -38 -3 -70 -8 -72 -10 -2 -2 2 -22 10
-43 8 -22 14 -57 15 -78 0 -24 5 -40 15 -43 8 -4 15 -17 15 -30 0 -25 15 -33
22 -12 8 23 27 -3 34 -47 5 -34 11 -45 25 -45 10 0 21 -4 24 -10 3 -5 1 -10
-4 -10 -15 0 -14 -37 0 -42 17 -6 -12 -48 -33 -48 -9 0 -24 9 -32 21 -8 12
-19 18 -25 14 -7 -4 -17 6 -24 23 -6 16 -18 27 -25 25 -7 -3 -15 8 -18 26 -7
32 -19 41 -27 19 -3 -10 -7 -10 -19 0 -13 10 -16 9 -21 -9 -5 -18 -9 -20 -20
-10 -12 9 -16 8 -19 -7 -8 -27 -52 -22 -56 6 -7 45 -22 20 -22 -35 0 -32 -4
-65 -10 -73 -6 -9 -5 -17 2 -21 13 -8 3 -39 -12 -39 -5 0 -10 8 -10 17 0 10
-7 37 -16 60 -20 51 -51 60 -56 16 -5 -46 -32 -35 -36 15 -2 23 -7 40 -12 37
-5 -3 -7 -19 -4 -34 4 -16 1 -32 -5 -35 -19 -12 -13 -46 8 -46 14 0 18 -5 14
-20 -3 -12 -11 -18 -17 -15 -6 3 -18 8 -27 11 -12 4 -18 24 -23 72 -11 121 -9
139 18 146 14 3 26 16 30 31 4 14 11 25 16 25 6 0 10 14 10 30 0 42 17 37 31
-9 11 -38 11 -38 40 -24 25 12 29 21 30 56 1 23 2 53 3 67 1 18 7 25 21 25 16
0 21 -10 28 -54 8 -45 11 -51 19 -37 20 35 41 54 54 49 9 -3 14 3 14 17 0 17
5 21 19 17 25 -6 36 39 12 53 -21 12 -5 27 34 33 17 2 37 7 45 10 16 7 79 15
95 12 6 -1 10 -10 10 -21z m-589 -4 c5 1 10 -3 12 -9 2 -6 -4 -11 -13 -11 -11
0 -15 -8 -13 -27 3 -31 -17 -40 -89 -42 -49 -1 -58 14 -14 24 16 3 32 13 35
22 6 14 -2 15 -59 10 -51 -5 -65 -3 -65 7 0 10 22 15 80 18 45 3 86 10 92 16
8 8 14 9 19 1 3 -6 10 -10 15 -9z m604 -49 c0 -5 -6 -11 -12 -14 -10 -3 -10
-7 0 -19 9 -11 10 -18 2 -23 -17 -11 -30 5 -30 36 0 22 5 29 20 29 11 0 20 -4
20 -9z m10 -96 c0 -3 -9 -5 -20 -5 -11 0 -20 7 -20 15 0 13 4 14 20 5 11 -6
20 -13 20 -15z m538 -97 c2 -101 0 -113 -18 -130 -27 -26 -16 -39 28 -36 32 3
37 0 46 -25 15 -40 -4 -51 -114 -67 -72 -10 -92 -10 -105 0 -8 7 -15 17 -15
22 0 17 70 78 90 78 11 0 20 4 20 8 0 11 -62 8 -81 -3 -7 -5 -31 -9 -53 -9
-23 -1 -47 -5 -54 -9 -7 -5 -19 -4 -26 2 -10 8 -17 7 -26 -4 -10 -12 -16 -13
-27 -3 -11 9 -16 9 -23 -1 -4 -7 -16 -11 -26 -7 -11 3 -26 1 -34 -4 -9 -6 -19
-5 -29 3 -11 9 -15 9 -18 0 -3 -7 -11 -13 -19 -13 -11 0 -14 16 -14 65 0 36 4
65 9 65 4 0 24 -11 43 -24 l36 -24 10 22 c8 18 17 21 61 20 30 0 52 4 52 10 4
32 -4 103 -14 114 -7 8 -7 16 0 23 6 6 14 -10 23 -48 20 -93 26 -101 79 -105
67 -5 93 1 98 23 3 10 14 19 24 19 23 0 34 25 44 98 4 30 12 52 19 52 9 0 13
-32 14 -112z m-544 63 c3 -5 -1 -12 -10 -15 -20 -8 -29 -1 -19 13 8 13 22 14
29 2z m426 -31 c0 -5 -5 -12 -11 -16 -14 -8 -33 11 -25 25 7 11 36 4 36 -9z
m-233 -86 c-4 -4 -13 -1 -22 6 -13 11 -19 10 -34 -4 -14 -12 -21 -14 -26 -6
-9 15 4 27 35 32 26 4 59 -16 47 -28z m-192 6 c-3 -5 -10 -10 -16 -10 -5 0 -9
5 -9 10 0 6 7 10 16 10 8 0 12 -4 9 -10z m-75 -153 c0 -8 -3 -17 -7 -20 -9 -9
-34 13 -27 24 8 14 34 11 34 -4z m-70 -12 c0 -8 -7 -15 -15 -15 -8 0 -15 7
-15 15 0 8 7 15 15 15 8 0 15 -7 15 -15z m-134 -6 c10 -17 -13 -36 -27 -22
-12 12 -4 33 11 33 5 0 12 -5 16 -11z m64 -4 c0 -8 -7 -15 -15 -15 -8 0 -15 7
-15 15 0 8 7 15 15 15 8 0 15 -7 15 -15z m-200 -21 c0 -8 -7 -14 -15 -14 -15
0 -21 21 -9 33 10 9 24 -2 24 -19z m590 17 c0 -11 -15 -14 -190 -40 -143 -21
-210 -30 -460 -61 -245 -31 -233 -28 -226 -56 5 -17 2 -24 -8 -24 -8 0 -21 -3
-30 -6 -12 -5 -16 0 -16 20 0 14 -4 26 -10 26 -5 0 -10 -8 -10 -17 0 -13 -4
-12 -14 7 -7 14 -10 28 -6 33 3 4 47 12 96 17 49 6 154 19 234 29 80 11 204
27 275 35 72 9 175 22 230 30 131 17 135 18 135 7z m178 -13 c2 -9 -5 -18 -15
-21 -10 -2 -25 -8 -34 -11 -12 -5 -18 -1 -22 15 -3 12 -4 26 -1 31 9 13 69 2
72 -14z m-928 -129 c0 -8 -21 -13 -41 -11 -4 1 -21 -3 -38 -8 -18 -5 -31 -5
-31 1 0 5 12 11 28 15 15 3 31 7 36 8 25 6 46 4 46 -5z m-890 -249 c0 -13 -28
-25 -38 -16 -3 4 0 11 8 16 20 13 30 12 30 0z m1546 -66 c22 -9 89 -29 149
-44 l110 -28 3 -36 c3 -34 0 -38 -34 -52 -20 -9 -46 -13 -57 -10 -11 3 -38 -4
-61 -15 -22 -10 -48 -17 -57 -14 -10 3 -39 -1 -66 -9 -26 -8 -74 -18 -105 -21
-32 -4 -58 -11 -58 -16 0 -5 -14 -9 -31 -9 -20 0 -29 4 -27 13 7 20 52 37 128
46 39 5 81 16 94 24 13 9 43 17 67 19 25 2 44 8 44 15 0 11 -114 75 -153 85
-12 4 -58 -3 -102 -13 -69 -17 -86 -25 -121 -62 -41 -42 -41 -42 -20 -7 12 19
27 45 33 57 6 12 21 24 34 27 26 7 33 26 10 26 -22 0 -108 -78 -134 -122 -30
-49 -36 -49 -13 2 10 22 41 65 70 95 l53 56 84 -2 c46 -2 87 0 90 4 11 11 28
8 70 -9z m-398 -285 l78 -41 -53 -54 c-29 -29 -53 -60 -53 -68 0 -13 -13 -16
-65 -16 -49 0 -65 3 -65 14 0 17 -46 27 -75 16 -12 -4 -52 -11 -89 -15 -56 -6
-68 -5 -64 6 3 9 26 16 64 20 69 6 94 16 94 35 0 17 -51 44 -83 44 -14 0 -39
3 -56 6 -25 5 -29 9 -20 20 14 17 42 18 108 2 28 -6 54 -8 58 -4 13 12 -20 26
-64 26 -47 0 -61 11 -37 31 13 10 29 10 90 0 64 -11 77 -10 96 3 33 23 49 20
136 -25z m-448 -113 c0 -11 -19 -15 -25 -6 -3 5 1 10 9 10 9 0 16 -2 16 -4z
m104 -142 c9 -3 16 -15 16 -26 0 -18 -4 -20 -32 -14 -38 7 -53 20 -44 35 8 12
36 14 60 5z"/>
<path d="M2410 3120 c-31 -34 -36 -65 -11 -65 8 0 18 13 22 28 4 16 13 35 20
43 25 30 -2 25 -31 -6z"/>
<path d="M1887 1193 c-12 -11 -8 -23 7 -23 7 0 19 7 26 15 10 12 9 15 -7 15
-11 0 -23 -3 -26 -7z"/>
<path d="M1155 912 c16 -17 27 -20 58 -15 46 7 49 23 5 23 -18 0 -44 3 -58 6
l-25 7 20 -21z"/>
<path d="M57 3017 c-11 -11 -25 -16 -38 -12 -17 6 -19 1 -19 -49 0 -30 4 -66
10 -80 8 -22 13 -25 35 -16 29 11 51 5 81 -22 12 -10 25 -18 30 -17 24 4 42
-4 73 -32 32 -29 37 -30 74 -20 23 5 44 8 49 5 4 -3 8 0 8 5 0 6 18 11 39 11
24 0 41 5 44 14 4 11 -12 16 -74 23 -110 11 -98 29 16 24 50 -2 103 -4 119 -5
23 -1 31 -7 37 -28 6 -22 2 -32 -18 -53 -25 -24 -25 -25 -5 -25 11 0 24 -4 27
-10 16 -26 24 -4 22 62 -1 49 2 73 10 75 7 3 13 13 13 22 0 13 -8 18 -30 19
-17 0 -28 -3 -26 -7 3 -4 1 -13 -4 -21 -7 -11 -16 -12 -47 -2 -21 6 -94 16
-163 22 -69 7 -127 14 -129 16 -14 14 23 21 79 14 133 -16 246 -21 230 -11 -8
6 -45 13 -83 17 -62 6 -89 17 -70 27 5 2 43 1 86 -2 57 -4 82 -3 89 6 6 7 7
13 4 13 -7 0 -386 47 -431 53 -11 2 -28 -5 -38 -16z"/>
<path d="M582 2840 c0 -14 2 -19 5 -12 2 6 2 18 0 25 -3 6 -5 1 -5 -13z"/>
<path d="M458 2703 c7 -3 16 -2 19 1 4 3 -2 6 -13 5 -11 0 -14 -3 -6 -6z"/>
<path d="M518 2693 c7 -3 16 -2 19 1 4 3 -2 6 -13 5 -11 0 -14 -3 -6 -6z"/>
<path d="M450 2636 c0 -2 7 -6 15 -10 8 -3 15 -1 15 4 0 6 -7 10 -15 10 -8 0
-15 -2 -15 -4z"/>
<path d="M585 1560 c3 -5 8 -10 11 -10 2 0 4 5 4 10 0 6 -5 10 -11 10 -5 0 -7
-4 -4 -10z"/>
</g>
</svg>
